<?xml version="1.0" standalone="no"?>
<!DOCTYPE svg PUBLIC "-//W3C//DTD SVG 20010904//EN"
 "http://www.w3.org/TR/2001/REC-SVG-20010904/DTD/svg10.dtd">
<svg version="1.0" xmlns="http://www.w3.org/2000/svg"
 width="1280.000000pt" height="1280.000000pt" viewBox="0 0 1280.000000 1280.000000"
 preserveAspectRatio="xMidYMid meet">

<g transform="translate(0.000000,1280.000000) scale(0.100000,-0.100000)"
fill="#000000" stroke="none">
<path d="M5913 7359 c-231 -40 -426 -228 -478 -462 -14 -63 -16 -136 -13 -533
4 -511 1 -488 79 -634 41 -76 158 -189 240 -230 131 -67 163 -70 659 -70 409
0 453 2 522 19 181 46 314 154 397 320 57 112 61 150 61 632 0 487 -4 522 -72
652 -43 83 -165 205 -243 245 -134 67 -123 66 -635 68 -256 1 -488 -2 -517 -7z
m822 -299 c97 -30 185 -81 253 -146 l57 -54 -95 -90 c-52 -49 -99 -90 -104
-90 -5 0 -29 18 -53 41 -161 148 -438 138 -587 -21 -91 -97 -130 -243 -103
-376 37 -175 130 -276 292 -319 146 -38 286 -4 407 96 l48 41 95 -87 c52 -48
95 -91 95 -95 0 -18 -127 -121 -190 -154 -105 -55 -200 -76 -349 -76 -76 0
-151 6 -189 15 -318 75 -532 343 -532 666 0 184 64 343 190 470 102 103 205
159 355 194 93 22 320 14 410 -15z"/>
</g>
</svg>
